Gamer-medium.ufo
<glyph name="H" format="1">
  <advance width="716"/>
  <unicode hex="0048"/>
  <outline>
    <contour>
      <point x="71" y="0" type="line"/>
      <point x="178" y="0" type="line"/>
      <point x="178" y="680" type="line"/>
      <point x="71" y="680" type="line"/>
    </contour>
    <contour>
      <point x="154" y="294" type="line"/>
      <point x="577" y="294" type="line"/>
      <point x="577" y="393" type="line"/>
      <point x="154" y="393" type="line"/>
    </contour>
    <contour>
      <point x="525" y="0" type="line"/>
      <point x="633" y="0" type="line"/>
      <point x="633" y="680" type="line"/>
      <point x="525" y="680" type="line"/>
    </contour>
    <contour>
      <point x="432.0" y="571.0" type="move" name="ST"/>
    </contour>
  </outline>
</glyph>
<glyph name="a" format="1">
  <advance width="549"/>
  <unicode hex="0061"/>
  <outline>
    <contour>
      <point x="399" y="0" type="line"/>
      <point x="371" y="131" type="line"/>
      <point x="414" y="104" type="line"/>
      <point x="357" y="104" type="line"/>
      <point x="357" y="311" type="line" smooth="yes"/>
      <point x="357" y="341"/>
      <point x="353" y="359"/>
      <point x="336" y="376" type="curve" smooth="yes"/>
      <point x="319" y="393"/>
      <point x="283" y="404"/>
      <point x="238" y="404" type="curve" smooth="yes"/>
      <point x="178" y="404"/>
      <point x="120" y="395"/>
      <point x="70" y="382" type="curve" name=""/>
      <point x="82" y="484" type="line" name=""/>
      <point x="122" y="497"/>
      <point x="184" y="504"/>
      <point x="240" y="504" type="curve" smooth="yes" name=""/>
      <point x="328" y="504"/>
      <point x="397" y="487"/>
      <point x="425" y="459" type="curve" smooth="yes"/>
      <point x="452" y="432"/>
      <point x="463" y="384"/>
      <point x="463" y="311" type="curve" smooth="yes"/>
      <point x="463" y="77" type="line"/>
      <point x="433" y="84" type="line"/>
      <point x="459" y="92"/>
      <point x="486" y="95"/>
      <point x="533" y="95" type="curve"/>
      <point x="533" y="0" type="line"/>
    </contour>
    <contour>
      <point x="209" y="-12" type="curve" smooth="yes" name=""/>
      <point x="149" y="-12"/>
      <point x="110" y="0"/>
      <point x="84" y="26" type="curve" smooth="yes"/>
      <point x="61" y="49"/>
      <point x="48" y="90"/>
      <point x="48" y="137" type="curve" smooth="yes"/>
      <point x="48" y="179"/>
      <point x="64" y="220"/>
      <point x="90" y="246" type="curve" smooth="yes" name=""/>
      <point x="117" y="273"/>
      <point x="160" y="282"/>
      <point x="230" y="282" type="curve" smooth="yes" name=""/>
      <point x="284" y="282"/>
      <point x="311" y="277"/>
      <point x="328" y="260" type="curve" smooth="yes"/>
      <point x="345" y="243"/>
      <point x="354" y="221"/>
      <point x="359" y="184" type="curve" name=""/>
      <point x="367" y="184" type="line"/>
      <point x="363" y="163" type="line"/>
      <point x="350" y="188"/>
      <point x="316" y="194"/>
      <point x="249" y="194" type="curve" smooth="yes" name=""/>
      <point x="172" y="194"/>
      <point x="151" y="179"/>
      <point x="151" y="137" type="curve" smooth="yes"/>
      <point x="151" y="95"/>
      <point x="177" y="81"/>
      <point x="243" y="81" type="curve" smooth="yes" name=""/>
      <point x="317" y="81"/>
      <point x="354" y="99"/>
      <point x="363" y="131" type="curve"/>
      <point x="367" y="117" type="line"/>
      <point x="363" y="61"/>
      <point x="355" y="36"/>
      <point x="338" y="19" type="curve" smooth="yes" name=""/>
      <point x="320" y="1"/>
      <point x="278" y="-12"/>
    </contour>
  </outline>
</glyph>
<glyph name="b" format="1">
  <advance width="591.0"/>
  <unicode hex="0062"/>
  <outline>
    <contour>
      <point x="80" y="0" type="line"/>
      <point x="80" y="612" type="line"/>
      <point x="102" y="593" type="line"/>
      <point x="23" y="593" type="line"/>
      <point x="23" y="690" type="line"/>
      <point x="186" y="690" type="line"/>
      <point x="186" y="134" type="line"/>
      <point x="184" y="0" type="line"/>
    </contour>
    <contour>
      <point x="342" y="-12" type="curve" smooth="yes" name="SP"/>
      <point x="242" y="-12"/>
      <point x="193" y="31"/>
      <point x="183" y="137" type="curve"/>
      <point x="183" y="145" type="line"/>
      <point x="202" y="122"/>
      <point x="223" y="106"/>
      <point x="248" y="98" type="curve" smooth="yes"/>
      <point x="273" y="90"/>
      <point x="294" y="86"/>
      <point x="319" y="86" type="curve" smooth="yes" name="SP"/>
      <point x="359" y="86"/>
      <point x="392" y="97"/>
      <point x="415" y="120" type="curve" smooth="yes"/>
      <point x="437" y="142"/>
      <point x="447" y="184"/>
      <point x="447" y="246" type="curve" smooth="yes"/>
      <point x="447" y="308"/>
      <point x="437" y="350"/>
      <point x="415" y="372" type="curve" smooth="yes"/>
      <point x="392" y="395"/>
      <point x="359" y="406"/>
      <point x="319" y="406" type="curve" smooth="yes" name="SP"/>
      <point x="294" y="406"/>
      <point x="273" y="402"/>
      <point x="248" y="394" type="curve" smooth="yes"/>
      <point x="223" y="386"/>
      <point x="202" y="370"/>
      <point x="183" y="347" type="curve"/>
      <point x="183" y="355" type="line"/>
      <point x="193" y="461"/>
      <point x="242" y="504"/>
      <point x="342" y="504" type="curve" smooth="yes" name="SP"/>
      <point x="409" y="504"/>
      <point x="456" y="481"/>
      <point x="493" y="444" type="curve" smooth="yes"/>
      <point x="529" y="408"/>
      <point x="544" y="345"/>
      <point x="544" y="246" type="curve" smooth="yes"/>
      <point x="544" y="147"/>
      <point x="529" y="84"/>
      <point x="493" y="48" type="curve" smooth="yes"/>
      <point x="456" y="11"/>
      <point x="409" y="-12"/>
    </contour>
  </outline>
</glyph>
<glyph name="c" format="1">
  <advance width="515"/>
  <unicode hex="0063"/>
  <outline>
    <contour>
      <point x="350" y="327" type="line"/>
      <point x="350" y="445" type="line"/>
      <point x="460" y="472" type="line"/>
      <point x="460" y="327" type="line"/>
    </contour>
    <contour>
      <point x="306" y="-12" type="curve" smooth="yes" name=""/>
      <point x="219" y="-12"/>
      <point x="150" y="8"/>
      <point x="114" y="44" type="curve" smooth="yes"/>
      <point x="79" y="80"/>
      <point x="58" y="151"/>
      <point x="58" y="240" type="curve" smooth="yes" name=""/>
      <point x="58" y="330"/>
      <point x="80" y="406"/>
      <point x="117" y="443" type="curve" smooth="yes"/>
      <point x="158" y="484"/>
      <point x="220" y="504"/>
      <point x="288" y="504" type="curve" smooth="yes" name=""/>
      <point x="342" y="504"/>
      <point x="406" y="491"/>
      <point x="460" y="472" type="curve"/>
      <point x="446" y="361" type="line"/>
      <point x="376" y="394"/>
      <point x="352" y="403"/>
      <point x="295" y="403" type="curve" smooth="yes" name=""/>
      <point x="246" y="403"/>
      <point x="211" y="395"/>
      <point x="191" y="375" type="curve" smooth="yes"/>
      <point x="173" y="357"/>
      <point x="163" y="324"/>
      <point x="163" y="240" type="curve" smooth="yes"/>
      <point x="163" y="179"/>
      <point x="171" y="138"/>
      <point x="189" y="121" type="curve" smooth="yes"/>
      <point x="208" y="102"/>
      <point x="249" y="88"/>
      <point x="307" y="88" type="curve" smooth="yes"/>
      <point x="359" y="88"/>
      <point x="406" y="99"/>
      <point x="462" y="124" type="curve" name=""/>
      <point x="458" y="21" type="line" name=""/>
      <point x="409" y="-2"/>
      <point x="361" y="-12"/>
    </contour>
  </outline>
</glyph>
<glyph name="d" format="1">
  <advance width="588"/>
  <unicode hex="0064"/>
  <outline>
    <contour>
      <point x="246" y="-12" type="curve" smooth="yes" name="SP"/>
      <point x="179" y="-12"/>
      <point x="132" y="11"/>
      <point x="95" y="48" type="curve" smooth="yes"/>
      <point x="59" y="84"/>
      <point x="44" y="147"/>
      <point x="44" y="246" type="curve" smooth="yes"/>
      <point x="44" y="345"/>
      <point x="59" y="408"/>
      <point x="95" y="444" type="curve" smooth="yes"/>
      <point x="132" y="481"/>
      <point x="179" y="504"/>
      <point x="246" y="504" type="curve" smooth="yes" name="SP"/>
      <point x="346" y="504"/>
      <point x="395" y="461"/>
      <point x="405" y="355" type="curve"/>
      <point x="405" y="347" type="line"/>
      <point x="386" y="370"/>
      <point x="365" y="386"/>
      <point x="340" y="394" type="curve" smooth="yes"/>
      <point x="315" y="402"/>
      <point x="294" y="406"/>
      <point x="269" y="406" type="curve" smooth="yes" name="SP"/>
      <point x="229" y="406"/>
      <point x="196" y="395"/>
      <point x="173" y="372" type="curve" smooth="yes"/>
      <point x="151" y="350"/>
      <point x="141" y="308"/>
      <point x="141" y="246" type="curve" smooth="yes"/>
      <point x="141" y="184"/>
      <point x="151" y="142"/>
      <point x="173" y="120" type="curve" smooth="yes"/>
      <point x="196" y="97"/>
      <point x="229" y="86"/>
      <point x="269" y="86" type="curve" smooth="yes" name="SP"/>
      <point x="294" y="86"/>
      <point x="315" y="90"/>
      <point x="340" y="98" type="curve" smooth="yes"/>
      <point x="365" y="106"/>
      <point x="386" y="122"/>
      <point x="405" y="145" type="curve"/>
      <point x="405" y="137" type="line"/>
      <point x="395" y="31"/>
      <point x="346" y="-12"/>
    </contour>
    <contour>
      <point x="404" y="0" type="line"/>
      <point x="402" y="134" type="line"/>
      <point x="402" y="612" type="line"/>
      <point x="424" y="593" type="line"/>
      <point x="330" y="593" type="line"/>
      <point x="330" y="690" type="line"/>
      <point x="508" y="690" type="line"/>
      <point x="508" y="0" type="line"/>
    </contour>
  </outline>
</glyph>
<glyph name="e" format="1">
  <advance width="536"/>
  <unicode hex="0065"/>
  <outline>
    <contour>
      <point x="301" y="-12" type="curve" smooth="yes" name=""/>
      <point x="225" y="-12"/>
      <point x="150" y="11"/>
      <point x="114" y="47" type="curve" smooth="yes"/>
      <point x="79" y="82"/>
      <point x="58" y="156"/>
      <point x="58" y="244" type="curve" smooth="yes" name=""/>
      <point x="58" y="334"/>
      <point x="83" y="412"/>
      <point x="120" y="449" type="curve" smooth="yes"/>
      <point x="153" y="482"/>
      <point x="217" y="504"/>
      <point x="284" y="504" type="curve" smooth="yes" name=""/>
      <point x="360" y="504"/>
      <point x="423" y="483"/>
      <point x="453" y="443" type="curve" smooth="yes"/>
      <point x="487" y="397"/>
      <point x="493" y="305"/>
      <point x="486" y="199" type="curve"/>
      <point x="110" y="199" type="line" name=""/>
      <point x="110" y="287" type="line" name=""/>
      <point x="413" y="287" type="line" name=""/>
      <point x="388" y="244" type="line" name="_p_cornerRadius:22.0"/>
      <point x="388" y="329"/>
      <point x="386" y="343"/>
      <point x="373" y="366" type="curve" smooth="yes"/>
      <point x="358" y="392"/>
      <point x="335" y="406"/>
      <point x="281" y="406" type="curve" smooth="yes" name=""/>
      <point x="236" y="406"/>
      <point x="211" y="398"/>
      <point x="191" y="378" type="curve" smooth="yes"/>
      <point x="171" y="358"/>
      <point x="163" y="321"/>
      <point x="163" y="263" type="curve" smooth="yes" name=""/>
      <point x="163" y="229" type="line" smooth="yes" name=""/>
      <point x="163" y="169"/>
      <point x="170" y="141"/>
      <point x="186" y="125" type="curve" smooth="yes"/>
      <point x="208" y="103"/>
      <point x="250" y="88"/>
      <point x="303" y="88" type="curve" smooth="yes"/>
      <point x="363" y="88"/>
      <point x="421" y="97"/>
      <point x="471" y="110" type="curve" name=""/>
      <point x="459" y="8" type="line" name=""/>
      <point x="421" y="-4"/>
      <point x="360" y="-12"/>
    </contour>
    <contour>
      <point x="299.0" y="393.0" type="move" name="ST"/>
    </contour>
  </outline>
</glyph>
<glyph name="f" format="1">
  <advance width="374"/>
  <unicode hex="0066"/>
  <outline>
    <contour>
      <point x="350" y="492" type="line"/>
      <point x="23" y="492" type="line"/>
      <point x="23" y="395" type="line"/>
      <point x="350" y="395" type="line"/>
    </contour>
    <contour>
      <point x="208" y="0" type="line"/>
      <point x="208" y="498" type="line" smooth="yes"/>
      <point x="208" y="541"/>
      <point x="214" y="560"/>
      <point x="230" y="576" type="curve" smooth="yes"/>
      <point x="246" y="592"/>
      <point x="274" y="600"/>
      <point x="314" y="600" type="curve" smooth="yes"/>
      <point x="334" y="600"/>
      <point x="357" y="598"/>
      <point x="379" y="593" type="curve"/>
      <point x="374" y="696" type="line"/>
      <point x="353" y="699"/>
      <point x="330" y="700"/>
      <point x="303" y="700" type="curve" smooth="yes"/>
      <point x="238" y="700"/>
      <point x="184" y="681"/>
      <point x="150" y="647" type="curve" smooth="yes"/>
      <point x="116" y="613"/>
      <point x="102" y="568"/>
      <point x="102" y="495" type="curve" smooth="yes"/>
      <point x="102" y="0" type="line"/>
    </contour>
  </outline>
</glyph>
<glyph name="g" format="1">
  <advance width="591.0"/>
  <unicode hex="0067"/>
  <outline>
    <contour>
      <point x="259" y="-220" type="curve" smooth="yes"/>
      <point x="200" y="-220"/>
      <point x="138" y="-210"/>
      <point x="90" y="-199" type="curve"/>
      <point x="86" y="-88" type="line"/>
      <point x="145" y="-108"/>
      <point x="207" y="-120"/>
      <point x="273" y="-120" type="curve" smooth="yes"/>
      <point x="331" y="-120"/>
      <point x="365" y="-112"/>
      <point x="383" y="-94" type="curve" smooth="yes"/>
      <point x="398" y="-79"/>
      <point x="405" y="-53"/>
      <point x="405" y="-9" type="curve" smooth="yes"/>
      <point x="405" y="358" type="line"/>
      <point x="407" y="492" type="line"/>
      <point x="511" y="492" type="line"/>
      <point x="511" y="-30" type="line" smooth="yes"/>
      <point x="511" y="-82"/>
      <point x="496" y="-124"/>
      <point x="464" y="-156" type="curve" smooth="yes"/>
      <point x="422" y="-198"/>
      <point x="352" y="-220"/>
    </contour>
    <contour>
      <point x="249" y="-12" type="curve" smooth="yes" name="SP"/>
      <point x="182" y="-12"/>
      <point x="135" y="11"/>
      <point x="98" y="48" type="curve" smooth="yes"/>
      <point x="62" y="84"/>
      <point x="47" y="147"/>
      <point x="47" y="246" type="curve" smooth="yes"/>
      <point x="47" y="345"/>
      <point x="62" y="408"/>
      <point x="98" y="444" type="curve" smooth="yes"/>
      <point x="135" y="481"/>
      <point x="182" y="504"/>
      <point x="249" y="504" type="curve" smooth="yes" name="SP"/>
      <point x="349" y="504"/>
      <point x="398" y="461"/>
      <point x="408" y="355" type="curve"/>
      <point x="408" y="347" type="line"/>
      <point x="389" y="370"/>
      <point x="368" y="386"/>
      <point x="343" y="394" type="curve" smooth="yes"/>
      <point x="318" y="402"/>
      <point x="297" y="406"/>
      <point x="272" y="406" type="curve" smooth="yes" name="SP"/>
      <point x="232" y="406"/>
      <point x="199" y="395"/>
      <point x="176" y="372" type="curve" smooth="yes"/>
      <point x="154" y="350"/>
      <point x="144" y="308"/>
      <point x="144" y="246" type="curve" smooth="yes"/>
      <point x="144" y="184"/>
      <point x="154" y="142"/>
      <point x="176" y="120" type="curve" smooth="yes"/>
      <point x="199" y="97"/>
      <point x="232" y="86"/>
      <point x="272" y="86" type="curve" smooth="yes" name="SP"/>
      <point x="297" y="86"/>
      <point x="318" y="90"/>
      <point x="343" y="98" type="curve" smooth="yes"/>
      <point x="368" y="106"/>
      <point x="389" y="122"/>
      <point x="408" y="145" type="curve"/>
      <point x="408" y="137" type="line"/>
      <point x="398" y="31"/>
      <point x="349" y="-12"/>
    </contour>
    <contour>
      <point x="271.0" y="-74.0" type="move" name="ST"/>
    </contour>
  </outline>
</glyph>
<glyph name="h" format="1">
  <advance width="596"/>
  <unicode hex="0068"/>
  <outline>
    <contour>
      <point x="80" y="0" type="line"/>
      <point x="186" y="0" type="line"/>
      <point x="186" y="690" type="line"/>
      <point x="8" y="690" type="line"/>
      <point x="8" y="593" type="line"/>
      <point x="102" y="593" type="line"/>
      <point x="80" y="612" type="line"/>
    </contour>
    <contour>
      <point x="510" y="0" type="line"/>
      <point x="510" y="315" type="line" smooth="yes"/>
      <point x="510" y="393"/>
      <point x="499" y="436"/>
      <point x="473" y="462" type="curve" smooth="yes"/>
      <point x="447" y="489"/>
      <point x="399" y="504"/>
      <point x="344" y="504" type="curve" smooth="yes" name="SP"/>
      <point x="242" y="504"/>
      <point x="192" y="458"/>
      <point x="183" y="356" type="curve"/>
      <point x="183" y="348" type="line"/>
      <point x="198" y="368"/>
      <point x="213" y="379"/>
      <point x="238" y="388" type="curve" smooth="yes"/>
      <point x="260" y="396"/>
      <point x="279" y="398"/>
      <point x="307" y="398" type="curve" smooth="yes" name="SP"/>
      <point x="347" y="398"/>
      <point x="369" y="392"/>
      <point x="384" y="377" type="curve" smooth="yes"/>
      <point x="398" y="363"/>
      <point x="404" y="345"/>
      <point x="404" y="316" type="curve" smooth="yes"/>
      <point x="404" y="0" type="line"/>
    </contour>
  </outline>
</glyph>
<glyph name="m" format="1">
  <advance width="961"/>
  <unicode hex="006D"/>
  <outline>
    <contour>
      <point x="230" y="0" type="line"/>
      <point x="230" y="358" type="line"/>
      <point x="228" y="360" type="line"/>
      <point x="228" y="492" type="line"/>
      <point x="52" y="492" type="line"/>
      <point x="52" y="395" type="line"/>
      <point x="146" y="395" type="line"/>
      <point x="124" y="400" type="line"/>
      <point x="124" y="0" type="line"/>
    </contour>
    <contour>
      <point x="554" y="0" type="line"/>
      <point x="554" y="357" type="line"/>
      <point x="522" y="357" type="line"/>
      <point x="554" y="327" type="line"/>
      <point x="548" y="408"/>
      <point x="538" y="441"/>
      <point x="517" y="462" type="curve" smooth="yes"/>
      <point x="491" y="489"/>
      <point x="443" y="504"/>
      <point x="388" y="504" type="curve" smooth="yes" name="SP"/>
      <point x="286" y="504"/>
      <point x="236" y="458"/>
      <point x="227" y="356" type="curve"/>
      <point x="227" y="348" type="line"/>
      <point x="242" y="368"/>
      <point x="257" y="379"/>
      <point x="282" y="388" type="curve" smooth="yes"/>
      <point x="304" y="396"/>
      <point x="323" y="398"/>
      <point x="351" y="398" type="curve" smooth="yes" name="SP"/>
      <point x="391" y="398"/>
      <point x="413" y="392"/>
      <point x="428" y="377" type="curve" smooth="yes"/>
      <point x="442" y="363"/>
      <point x="448" y="345"/>
      <point x="448" y="316" type="curve" smooth="yes"/>
      <point x="448" y="0" type="line"/>
    </contour>
    <contour>
      <point x="878" y="0" type="line"/>
      <point x="878" y="315" type="line" smooth="yes"/>
      <point x="878" y="393"/>
      <point x="867" y="436"/>
      <point x="841" y="462" type="curve" smooth="yes"/>
      <point x="815" y="489"/>
      <point x="767" y="504"/>
      <point x="712" y="504" type="curve" smooth="yes" name="SP"/>
      <point x="610" y="504"/>
      <point x="558" y="458"/>
      <point x="549" y="356" type="curve"/>
      <point x="551" y="348" type="line"/>
      <point x="566" y="368"/>
      <point x="581" y="379"/>
      <point x="606" y="388" type="curve" smooth="yes"/>
      <point x="628" y="396"/>
      <point x="647" y="398"/>
      <point x="675" y="398" type="curve" smooth="yes" name="SP"/>
      <point x="715" y="398"/>
      <point x="737" y="392"/>
      <point x="752" y="377" type="curve" smooth="yes"/>
      <point x="766" y="363"/>
      <point x="772" y="345"/>
      <point x="772" y="316" type="curve" smooth="yes"/>
      <point x="772" y="0" type="line"/>
    </contour>
  </outline>
</glyph>
<glyph name="n" format="1">
  <advance width="637"/>
  <unicode hex="006E"/>
  <outline>
    <contour>
      <point x="225" y="0" type="line"/>
      <point x="119" y="0" type="line"/>
      <point x="119" y="400" type="line"/>
      <point x="141" y="395" type="line"/>
      <point x="47" y="395" type="line"/>
      <point x="47" y="492" type="line"/>
      <point x="223" y="492" type="line"/>
      <point x="223" y="360" type="line"/>
      <point x="225" y="358" type="line"/>
    </contour>
    <contour>
      <point x="549" y="0" type="line"/>
      <point x="443" y="0" type="line"/>
      <point x="443" y="316" type="line" smooth="yes"/>
      <point x="443" y="345"/>
      <point x="437" y="363"/>
      <point x="423" y="377" type="curve" smooth="yes"/>
      <point x="408" y="392"/>
      <point x="386" y="398"/>
      <point x="346" y="398" type="curve" smooth="yes" name="SP"/>
      <point x="318" y="398"/>
      <point x="299" y="396"/>
      <point x="277" y="388" type="curve" smooth="yes"/>
      <point x="252" y="379"/>
      <point x="237" y="368"/>
      <point x="222" y="348" type="curve"/>
      <point x="222" y="356" type="line"/>
      <point x="231" y="458"/>
      <point x="281" y="504"/>
      <point x="383" y="504" type="curve" smooth="yes" name="SP"/>
      <point x="438" y="504"/>
      <point x="486" y="489"/>
      <point x="512" y="462" type="curve" smooth="yes"/>
      <point x="538" y="436"/>
      <point x="549" y="393"/>
      <point x="549" y="315" type="curve" smooth="yes"/>
    </contour>
  </outline>
</glyph>
<glyph name="o" format="1">
  <advance width="586.0"/>
  <unicode hex="006F"/>
  <outline>
    <contour>
      <point x="293" y="87" type="curve" smooth="yes" name=""/>
      <point x="338" y="87"/>
      <point x="369" y="96"/>
      <point x="390" y="117" type="curve" smooth="yes"/>
      <point x="414" y="141"/>
      <point x="424" y="183"/>
      <point x="424" y="246" type="curve" smooth="yes"/>
      <point x="424" y="309"/>
      <point x="414" y="350"/>
      <point x="390" y="374" type="curve" smooth="yes"/>
      <point x="369" y="395"/>
      <point x="338" y="404"/>
      <point x="293" y="404" type="curve" smooth="yes" name=""/>
      <point x="248" y="404"/>
      <point x="217" y="395"/>
      <point x="196" y="374" type="curve" smooth="yes"/>
      <point x="172" y="350"/>
      <point x="162" y="309"/>
      <point x="162" y="246" type="curve" smooth="yes"/>
      <point x="162.0" y="183.0"/>
      <point x="172" y="141"/>
      <point x="196" y="117" type="curve" smooth="yes"/>
      <point x="217" y="96"/>
      <point x="248.0" y="87.0"/>
    </contour>
    <contour>
      <point x="293" y="-12" type="curve" smooth="yes" name=""/>
      <point x="225" y="-12"/>
      <point x="171" y="8"/>
      <point x="133" y="46" type="curve" smooth="yes"/>
      <point x="88" y="91"/>
      <point x="65" y="158"/>
      <point x="65" y="246" type="curve" smooth="yes"/>
      <point x="65" y="334"/>
      <point x="88" y="401"/>
      <point x="133" y="446" type="curve" smooth="yes"/>
      <point x="171" y="484"/>
      <point x="225" y="504"/>
      <point x="293" y="504" type="curve" smooth="yes" name=""/>
      <point x="361" y="504"/>
      <point x="415" y="484"/>
      <point x="453" y="446" type="curve" smooth="yes"/>
      <point x="498" y="401"/>
      <point x="521" y="334"/>
      <point x="521" y="246" type="curve" smooth="yes"/>
      <point x="521" y="158"/>
      <point x="498" y="91"/>
      <point x="453" y="46" type="curve" smooth="yes"/>
      <point x="415" y="8"/>
      <point x="361" y="-12"/>
    </contour>
  </outline>
</glyph>
<glyph name="p" format="1">
  <advance width="591.0"/>
  <unicode hex="0070"/>
  <outline>
    <contour>
      <point x="80" y="-210" type="line"/>
      <point x="186" y="-210" type="line"/>
      <point x="186" y="373" type="line"/>
      <point x="184" y="492" type="line"/>
      <point x="80" y="492" type="line"/>
    </contour>
    <contour>
      <point x="342" y="-12" type="curve" smooth="yes" name="SP"/>
      <point x="409" y="-12"/>
      <point x="456" y="11"/>
      <point x="493" y="48" type="curve" smooth="yes"/>
      <point x="529" y="84"/>
      <point x="544" y="147"/>
      <point x="544" y="246" type="curve" smooth="yes"/>
      <point x="544" y="345"/>
      <point x="529" y="408"/>
      <point x="493" y="444" type="curve" smooth="yes"/>
      <point x="456" y="481"/>
      <point x="409" y="504"/>
      <point x="342" y="504" type="curve" smooth="yes" name="SP"/>
      <point x="242" y="504"/>
      <point x="193" y="461"/>
      <point x="183" y="355" type="curve"/>
      <point x="183" y="347" type="line"/>
      <point x="202" y="370"/>
      <point x="223" y="386"/>
      <point x="248" y="394" type="curve" smooth="yes"/>
      <point x="273" y="402"/>
      <point x="294" y="406"/>
      <point x="319" y="406" type="curve" smooth="yes" name="SP"/>
      <point x="359" y="406"/>
      <point x="392" y="395"/>
      <point x="415" y="372" type="curve" smooth="yes"/>
      <point x="437" y="350"/>
      <point x="447" y="308"/>
      <point x="447" y="246" type="curve" smooth="yes"/>
      <point x="447" y="184"/>
      <point x="437" y="142"/>
      <point x="415" y="120" type="curve" smooth="yes"/>
      <point x="392" y="97"/>
      <point x="359" y="86"/>
      <point x="319" y="86" type="curve" smooth="yes" name="SP"/>
      <point x="294" y="86"/>
      <point x="273" y="90"/>
      <point x="248" y="98" type="curve" smooth="yes"/>
      <point x="223" y="106"/>
      <point x="202" y="122"/>
      <point x="183" y="145" type="curve"/>
      <point x="183" y="137" type="line"/>
      <point x="193" y="31"/>
      <point x="242" y="-12"/>
    </contour>
  </outline>
</glyph>
<glyph name="q" format="1">
  <advance width="591"/>
  <unicode hex="0071"/>
  <outline>
    <contour>
      <point x="405" y="-210" type="line"/>
      <point x="405" y="358" type="line"/>
      <point x="407" y="492" type="line"/>
      <point x="511" y="492" type="line"/>
      <point x="511" y="-210" type="line"/>
    </contour>
    <contour>
      <point x="249" y="-12" type="curve" smooth="yes" name="SP"/>
      <point x="182" y="-12"/>
      <point x="135" y="11"/>
      <point x="98" y="48" type="curve" smooth="yes"/>
      <point x="62" y="84"/>
      <point x="47" y="147"/>
      <point x="47" y="246" type="curve" smooth="yes"/>
      <point x="47" y="345"/>
      <point x="62" y="408"/>
      <point x="98" y="444" type="curve" smooth="yes"/>
      <point x="135" y="481"/>
      <point x="182" y="504"/>
      <point x="249" y="504" type="curve" smooth="yes" name="SP"/>
      <point x="349" y="504"/>
      <point x="398" y="461"/>
      <point x="408" y="355" type="curve"/>
      <point x="408" y="347" type="line"/>
      <point x="389" y="370"/>
      <point x="368" y="386"/>
      <point x="343" y="394" type="curve" smooth="yes"/>
      <point x="318" y="402"/>
      <point x="297" y="406"/>
      <point x="272" y="406" type="curve" smooth="yes" name="SP"/>
      <point x="232" y="406"/>
      <point x="199" y="395"/>
      <point x="176" y="372" type="curve" smooth="yes"/>
      <point x="154" y="350"/>
      <point x="144" y="308"/>
      <point x="144" y="246" type="curve" smooth="yes"/>
      <point x="144" y="184"/>
      <point x="154" y="142"/>
      <point x="176" y="120" type="curve" smooth="yes"/>
      <point x="199" y="97"/>
      <point x="232" y="86"/>
      <point x="272" y="86" type="curve" smooth="yes" name="SP"/>
      <point x="297" y="86"/>
      <point x="318" y="90"/>
      <point x="343" y="98" type="curve" smooth="yes"/>
      <point x="368" y="106"/>
      <point x="389" y="122"/>
      <point x="408" y="145" type="curve"/>
      <point x="408" y="137" type="line"/>
      <point x="398" y="31"/>
      <point x="349" y="-12"/>
    </contour>
  </outline>
</glyph>
<glyph name="r" format="1">
  <advance width="388.0"/>
  <unicode hex="0072"/>
  <outline>
    <contour>
      <point x="388" y="389" type="line"/>
      <point x="342" y="389"/>
      <point x="307" y="385"/>
      <point x="280" y="376" type="curve" smooth="yes"/>
      <point x="254" y="368"/>
      <point x="234" y="354"/>
      <point x="208" y="326" type="curve"/>
      <point x="208" y="334" type="line"/>
      <point x="231" y="462"/>
      <point x="276" y="504"/>
      <point x="391" y="504" type="curve"/>
    </contour>
    <contour>
      <point x="105" y="0" type="line"/>
      <point x="105" y="400" type="line"/>
      <point x="127" y="395" type="line"/>
      <point x="33" y="395" type="line"/>
      <point x="33" y="492" type="line"/>
      <point x="208" y="492" type="line"/>
      <point x="210" y="332" type="line"/>
      <point x="211" y="331" type="line"/>
      <point x="211" y="0" type="line"/>
    </contour>
  </outline>
</glyph>
<glyph name="s" format="1">
  <advance width="501"/>
  <unicode hex="0073"/>
  <outline>
    <contour>
      <point x="233" y="-12" type="curve" smooth="yes"/>
      <point x="375" y="-12"/>
      <point x="450" y="42"/>
      <point x="450" y="147" type="curve" smooth="yes"/>
      <point x="450" y="213"/>
      <point x="407" y="248"/>
      <point x="296" y="273" type="curve" smooth="yes"/>
      <point x="234" y="287" type="line" smooth="yes"/>
      <point x="178" y="300"/>
      <point x="158" y="318"/>
      <point x="158" y="353" type="curve" smooth="yes"/>
      <point x="158" y="376"/>
      <point x="162" y="389"/>
      <point x="175" y="398" type="curve" smooth="yes"/>
      <point x="188" y="407"/>
      <point x="213" y="410"/>
      <point x="252" y="410" type="curve" smooth="yes"/>
      <point x="315" y="410"/>
      <point x="349" y="401"/>
      <point x="424" y="365" type="curve"/>
      <point x="436" y="470" type="line"/>
      <point x="380" y="491"/>
      <point x="306" y="504"/>
      <point x="246" y="504" type="curve" smooth="yes"/>
      <point x="116" y="504"/>
      <point x="55" y="455"/>
      <point x="55" y="352" type="curve" smooth="yes"/>
      <point x="55" y="273"/>
      <point x="97" y="233"/>
      <point x="205" y="208" type="curve" smooth="yes"/>
      <point x="266" y="194" type="line" smooth="yes"/>
      <point x="336" y="178"/>
      <point x="347" y="169"/>
      <point x="347" y="141" type="curve" smooth="yes"/>
      <point x="347" y="103"/>
      <point x="316" y="86"/>
      <point x="234" y="86" type="curve" smooth="yes" name="SP"/>
      <point x="166" y="86"/>
      <point x="109" y="98"/>
      <point x="63" y="122" type="curve"/>
      <point x="57" y="16" type="line"/>
      <point x="118" y="-3"/>
      <point x="172" y="-12"/>
    </contour>
    <contour>
      <point x="326" y="326" type="line"/>
      <point x="436" y="326" type="line"/>
      <point x="436" y="470" type="line"/>
      <point x="326" y="470" type="line"/>
    </contour>
  </outline>
</glyph>
<glyph name="t" format="1">
  <advance width="423.0"/>
  <unicode hex="0074"/>
  <outline>
    <contour>
      <point x="304" y="-12" type="curve" smooth="yes"/>
      <point x="243" y="-12"/>
      <point x="191" y="7"/>
      <point x="158" y="40" type="curve" smooth="yes"/>
      <point x="125" y="73"/>
      <point x="111" y="119"/>
      <point x="111" y="191" type="curve" smooth="yes"/>
      <point x="109" y="574" type="line"/>
      <point x="214" y="602" type="line"/>
      <point x="217" y="190" type="line" smooth="yes"/>
      <point x="217" y="144"/>
      <point x="222" y="126"/>
      <point x="237" y="111" type="curve" smooth="yes"/>
      <point x="251" y="97"/>
      <point x="274" y="90"/>
      <point x="306" y="90" type="curve" smooth="yes"/>
      <point x="329" y="90"/>
      <point x="352" y="93"/>
      <point x="389" y="101" type="curve"/>
      <point x="388" y="-3" type="line"/>
      <point x="361" y="-9"/>
      <point x="333" y="-12"/>
    </contour>
    <contour>
      <point x="31" y="395" type="line"/>
      <point x="31" y="492" type="line"/>
      <point x="365" y="492" type="line"/>
      <point x="365" y="395" type="line"/>
    </contour>
  </outline>
</glyph>
<glyph name="u" format="1">
  <advance width="637"/>
  <unicode hex="0075"/>
  <outline>
    <contour>
      <point x="412" y="492" type="line"/>
      <point x="412" y="134" type="line"/>
      <point x="414" y="132" type="line"/>
      <point x="414" y="0" type="line"/>
      <point x="590" y="0" type="line"/>
      <point x="590" y="97" type="line"/>
      <point x="496" y="97" type="line"/>
      <point x="518" y="92" type="line"/>
      <point x="518" y="492" type="line"/>
    </contour>
    <contour>
      <point x="88" y="492" type="line"/>
      <point x="88" y="177" type="line" smooth="yes"/>
      <point x="88" y="99"/>
      <point x="99" y="56"/>
      <point x="125" y="30" type="curve" smooth="yes"/>
      <point x="151" y="3"/>
      <point x="199" y="-12"/>
      <point x="254" y="-12" type="curve" smooth="yes" name="SP"/>
      <point x="356" y="-12"/>
      <point x="406" y="34"/>
      <point x="415" y="136" type="curve"/>
      <point x="415" y="144" type="line"/>
      <point x="400" y="124"/>
      <point x="385" y="113"/>
      <point x="360" y="104" type="curve" smooth="yes"/>
      <point x="338" y="96"/>
      <point x="319" y="94"/>
      <point x="291" y="94" type="curve" smooth="yes" name="SP"/>
      <point x="251" y="94"/>
      <point x="229" y="100"/>
      <point x="214" y="115" type="curve" smooth="yes"/>
      <point x="200" y="129"/>
      <point x="194" y="147"/>
      <point x="194" y="176" type="curve" smooth="yes"/>
      <point x="194" y="492" type="line"/>
    </contour>
  </outline>
</glyph>
<glyph name="v" format="1">
  <advance width="513.0"/>
  <unicode hex="0076"/>
  <outline>
    <contour>
      <point x="181" y="0" type="line"/>
      <point x="284" y="0" type="line"/>
      <point x="212" y="197" type="line"/>
      <point x="108" y="492" type="line"/>
      <point x="1" y="492" type="line"/>
    </contour>
    <contour>
      <point x="332" y="0" type="line"/>
      <point x="512" y="492" type="line"/>
      <point x="409" y="492" type="line"/>
      <point x="305" y="197" type="line"/>
      <point x="233" y="0" type="line"/>
    </contour>
    <contour>
      <point x="325.0" y="326.0" type="move" name="ST"/>
    </contour>
  </outline>
</glyph>
<glyph name="a.001" format="1">
  <advance width="579"/>
  <outline>
    <contour>
      <point x="247" y="-11" type="curve" smooth="yes" name="SP"/>
      <point x="188" y="-11"/>
      <point x="140" y="9"/>
      <point x="103" y="46" type="curve" smooth="yes"/>
      <point x="67" y="82"/>
      <point x="50" y="146"/>
      <point x="50" y="246" type="curve" smooth="yes"/>
      <point x="50" y="348"/>
      <point x="67" y="410"/>
      <point x="103" y="446" type="curve" smooth="yes"/>
      <point x="141" y="484"/>
      <point x="188" y="505"/>
      <point x="247" y="505" type="curve" smooth="yes" name="SP"/>
      <point x="356" y="505"/>
      <point x="405" y="462"/>
      <point x="415" y="357" type="curve"/>
      <point x="415" y="349" type="line"/>
      <point x="398" y="371"/>
      <point x="378" y="382"/>
      <point x="352" y="391" type="curve" smooth="yes"/>
      <point x="332" y="397"/>
      <point x="310" y="400"/>
      <point x="284" y="400" type="curve" smooth="yes" name="SP"/>
      <point x="240" y="400"/>
      <point x="210" y="393"/>
      <point x="187" y="370" type="curve" smooth="yes"/>
      <point x="164" y="347"/>
      <point x="154" y="309"/>
      <point x="154" y="246" type="curve" smooth="yes"/>
      <point x="154" y="185"/>
      <point x="164" y="145"/>
      <point x="186" y="123" type="curve" smooth="yes"/>
      <point x="209" y="100"/>
      <point x="240" y="92"/>
      <point x="284" y="92" type="curve" smooth="yes" name="SP"/>
      <point x="310" y="92"/>
      <point x="332" y="95"/>
      <point x="352" y="101" type="curve" smooth="yes"/>
      <point x="378" y="110"/>
      <point x="398" y="123"/>
      <point x="415" y="145" type="curve"/>
      <point x="415" y="137" type="line"/>
      <point x="405" y="32"/>
      <point x="356" y="-11"/>
    </contour>
    <contour>
      <point x="519" y="0" type="line"/>
      <point x="414" y="0" type="line"/>
      <point x="412" y="134" type="line"/>
      <point x="412" y="372" type="line"/>
      <point x="414" y="492" type="line"/>
      <point x="519" y="492" type="line"/>
    </contour>
  </outline>
</glyph>
